<svg id="Layer_1" enable-background="new 0 0 480 480" height="512" viewBox="0 0 480 480" width="512" xmlns="http://www.w3.org/2000/svg"><path d="m418.96 303.74c0 5.31-2.07 10.6-6.14 14.57l-142.91 139.31c-11.66 11.36-28.07 16.43-44.1 13.62l-150.02-26.32c-8.05-1.41-16.33.79-22.61 6.03l-14.924 12.476c-4.64 3.879-11.74 1.405-12.965-4.517l-16.142-78.018c-.668-3.227.709-6.534 3.472-8.329l64.219-41.742c13.1-8.51 28.86-12.01 44.31-9.65 50.488 7.736 96.471 26.453 135.71 53.37.84.57 1.62 1.2 2.34 1.89l127.499-89.16c14.003-9.791 32.261.305 32.261 16.47z" fill="#ffebd2"/><path d="m237.563 194.241c1.45 1.094 3.425 1.094 4.875 0 25.888-19.532 71.215-8.991 61.653 40.06-4.8 24.58-23.42 51.45-56.68 59.79-4.87 1.21-9.95 1.21-14.82 0-33.26-8.34-51.88-35.21-56.68-59.79-9.563-49.052 35.764-59.592 61.652-40.06z" fill="#ffa4b8"/><path d="m61.04 176.26c0-5.31 2.07-10.6 6.14-14.57l142.91-139.31c11.66-11.36 28.07-16.43 44.1-13.62l150.02 26.32c8.05 1.41 16.33-.79 22.61-6.03l14.924-12.476c4.64-3.879 11.74-1.405 12.965 4.517l16.144 78.018c.668 3.227-.711 6.533-3.474 8.329l-64.219 41.742c-13.1 8.51-28.86 12.01-44.31 9.65-50.782-7.781-96.652-26.577-135.71-53.37-.84-.57-1.62-1.2-2.34-1.89l-127.497 89.16c-14.004 9.791-32.263-.305-32.263-16.47z" fill="#ffebd2"/><g fill="#fff3e4"><path d="m265.038 395.223c-.982 4.422-6.066 6.715-9.819 4.178-39.156-26.461-84.456-44.629-134.068-52.231-15.45-2.36-31.21 1.14-44.31 9.65l-54.942 35.705c-4.384 2.849-10.261.396-11.32-4.724l-1.43-6.911c-.67-3.23.712-6.529 3.472-8.329l64.219-41.741c13.1-8.51 28.86-12.01 44.31-9.65 27.41 4.2 60.86 12.75 96.06 30.15 16.385 8.088 38.15 21.429 41.99 25.11 5.327 4.953 7.304 12.19 5.838 18.793z"/><path d="m414.341 290.839c7.008 8.538-.751 21.107-11.597 19.019-4.953-.954-10.734-.301-16.044 3.412l-96.077 67.19c-4.14 2.895-9.97 1.308-11.914-3.355-.357-.855-.747-1.699-1.169-2.526-2.19-4.29-7.721-5.578-11.661-2.818l120.82-84.49c9.016-6.305 20.937-4.601 27.642 3.568z"/><path d="m87.18 161.69c-7.318 7.138-7.892 18.018-2.773 25.789 2.719 4.127-.476 9.545-5.385 8.973-16.929-1.972-24.086-22.819-11.842-34.762l142.91-139.31c4.092-3.986 8.768-7.198 13.808-9.567 5.921-2.783 11.162 4.772 6.453 9.314-.087.084-143.171 139.563-143.171 139.563z"/><path d="m342.441 151.176c3.095.833 2.01 5.47-1.126 4.808-28.296-5.972-60.694-18.49-78.524-27.304-20.134-9.939-38.551-22.294-40.68-23.97-10.126-7.927-10.148-23.273-.04-31.22 2.952-2.46 7.495-4.25 12.26-4.25h6.549c2.402 0 3.386 3.069 1.439 4.477-11.21 8.104-9.893 24.473.822 31.743 29.704 20.376 63.091 35.969 99.3 45.716z"/></g><path d="m280.456 186.299c4.073 1.101 3.95 6.855-.165 7.788-6.854 1.554-12.284 4.471-15.802 6.755-2.547 1.654-5.931 1.787-8.962-.364-5.409-3.84-3.744-12.302 2.664-14.019 7.419-1.99 15.209-2.068 22.265-.16z" fill="#ffbfcb"/><path d="m203.585 263.737c3.34 6.266-5.065 12.179-9.75 6.842-9.563-10.893-15.503-23.878-17.925-36.279-6.709-34.441 13.631-49.896 35.305-49.286 6.336.178 8.248 8.754 2.494 11.412-24.442 11.296-22.639 43.831-10.124 67.311z" fill="#ffbfcb"/><g><path d="m119.939 329.083c47.671 7.288 92.604 24.794 132.396 52.056 9.602 6.579 4.98 21.625-6.664 21.625h-71.391c-4.418 0-8 3.582-8 8s3.582 8 8 8h71.391c12.154 0 22.809-7.777 26.513-19.353 3.778-11.807-.563-24.455-10.806-31.472-42.512-29.125-89.87-47.16-139.021-54.673-17.33-2.647-35.044 1.203-49.881 10.846l-68.793 44.716c-3.704 2.408-4.755 7.363-2.348 11.067s7.361 4.756 11.068 2.348l68.792-44.716c11.54-7.5 25.3-10.499 38.744-8.444z"/><path d="m382.386 280.525-93.55 65.414c-3.621 2.532-4.504 7.52-1.973 11.141 2.533 3.621 7.521 4.503 11.141 1.972l93.551-65.414c5.256-3.677 12.342-2.753 16.483 2.141 4.164 4.921 3.81 12.3-.806 16.8l-142.91 139.314c-9.787 9.542-23.666 13.829-37.133 11.466l-150.012-26.319c-10.397-1.824-21.012 1.006-29.131 7.772l-25.178 21.051c-3.39 2.834-3.84 7.879-1.006 11.269 2.826 3.379 7.871 3.848 11.27 1.006l25.167-21.042c4.487-3.739 10.362-5.308 16.113-4.295l150.012 26.318c18.516 3.246 37.607-2.646 51.067-15.769l142.909-139.314c10.604-10.336 11.417-27.288 1.853-38.592-9.517-11.247-25.795-13.36-37.867-4.919z"/><path d="m478.665 100.105c-2.408-3.705-7.363-4.756-11.068-2.348l-68.792 44.716c-11.541 7.5-25.299 10.498-38.743 8.444-47.671-7.288-92.604-24.794-132.396-52.056-9.602-6.579-4.98-21.625 6.664-21.625h71.391c4.418 0 8-3.582 8-8s-3.582-8-8-8h-71.391c-12.154 0-22.809 7.777-26.513 19.353-3.778 11.807.563 24.455 10.806 31.472 42.512 29.125 89.87 47.16 139.021 54.673 17.709 2.706 35.373-1.417 49.881-10.846l68.793-44.716c3.704-2.407 4.754-7.362 2.347-11.067z"/><path d="m97.614 199.476 86.624-60.571c3.621-2.532 4.504-7.52 1.973-11.141-2.533-3.621-7.52-4.503-11.141-1.972l-86.625 60.571c-5.256 3.676-12.343 2.753-16.483-2.141-4.164-4.921-3.81-12.3.806-16.8l142.91-139.314c9.787-9.542 23.665-13.83 37.133-11.466l150.013 26.318c10.396 1.822 21.012-1.006 29.131-7.772l25.178-21.051c3.39-2.834 3.84-7.879 1.006-11.269-2.836-3.391-7.881-3.84-11.27-1.006l-25.167 21.042c-4.488 3.739-10.363 5.306-16.113 4.295l-150.013-26.316c-18.517-3.247-37.606 2.646-51.067 15.769l-142.909 139.314c-10.604 10.336-11.417 27.288-1.853 38.592 9.531 11.264 25.814 13.347 37.867 4.918z"/><path d="m234.736 202.248c3.328 2.907 8.381 2.568 11.289-.76 2.907-3.327 2.566-8.381-.76-11.288-31.694-27.694-88.417-11.892-77.203 45.629 4.76 24.412 24.006 56.349 62.586 66.017 6.116 1.533 12.585 1.534 18.704 0 38.581-9.668 57.827-41.605 62.587-66.017 6.323-32.435-9.316-50.293-26.062-56.191-4.167-1.468-8.736.721-10.203 4.888-1.468 4.167.721 8.736 4.889 10.204 13.729 4.835 19.441 18.7 15.671 38.038-3.86 19.805-19.475 45.715-50.771 53.559-3.572.896-7.351.896-10.925 0-31.296-7.843-46.91-33.753-50.771-53.558-8.395-43.048 31.395-47.627 50.969-30.521z"/></g></svg>